
<svg version="1.0" xmlns="http://www.w3.org/2000/svg"
 width="884.000000pt" height="317.000000pt" viewBox="0 0 884.000000 317.000000"
 preserveAspectRatio="xMidYMid meet">
<g transform="translate(0.000000,317.000000) scale(0.100000,-0.100000)"
fill="#000000" stroke="none">
<path d="M7475 2730 c-282 -44 -539 -198 -708 -425 -73 -97 -158 -271 -187
-380 -201 -769 427 -1501 1196 -1394 465 64 846 450 920 932 54 351 -70 724
-324 969 -197 190 -442 295 -712 303 -69 2 -152 0 -185 -5z m280 -45 c91 -24
153 -63 240 -150 65 -64 91 -100 132 -180 244 -478 210 -1190 -74 -1562 -205
-270 -527 -310 -771 -97 -367 321 -433 1258 -121 1724 94 141 221 240 345 269
62 14 185 12 249 -4z"/>
<path d="M120 2697 c0 -2 25 -21 56 -41 101 -67 94 15 94 -1026 0 -1042 7
-958 -96 -1027 l-57 -38 459 -3 c287 -2 491 1 544 8 433 55 781 354 895 770
20 73 28 128 32 236 7 166 -6 272 -47 396 -59 176 -132 293 -265 423 -108 106
-228 184 -358 233 -175 66 -171 65 -739 69 -285 2 -518 2 -518 0z m1011 -56
c117 -37 232 -129 318 -254 81 -118 146 -316 171 -520 18 -139 8 -463 -18
-587 -77 -371 -255 -606 -504 -665 -44 -10 -121 -15 -255 -15 l-193 0 0 1036
0 1037 208 -6 c170 -4 219 -9 273 -26z"/>
<path d="M2351 2662 c36 -24 62 -52 77 -82 l22 -44 0 -906 0 -906 -22 -44
c-16 -31 -40 -56 -76 -80 l-53 -35 1052 -3 c579 -1 1056 1 1060 5 6 7 119 502
119 520 0 5 -20 -28 -43 -73 -90 -172 -196 -287 -322 -348 -131 -65 -138 -66
-767 -66 l-568 0 0 530 0 530 163 0 c89 0 180 -5 202 -10 51 -11 95 -60 131
-148 15 -37 31 -71 36 -76 4 -6 8 107 8 249 0 142 -4 255 -8 249 -5 -5 -21
-40 -37 -78 -17 -41 -45 -86 -67 -108 l-38 -38 -195 0 -195 0 0 480 0 480 198
0 c132 0 219 -5 265 -15 151 -32 277 -134 386 -312 35 -57 64 -103 66 -103 3
0 -43 225 -81 398 l-16 72 -676 0 -675 0 54 -38z"/>
<path d="M3910 2695 c0 -3 22 -19 50 -36 27 -16 59 -47 72 -67 l23 -37 3 -675
c2 -371 0 -700 -3 -730 -6 -48 -13 -60 -54 -100 -25 -25 -57 -53 -71 -62 -24
-16 -17 -17 145 -17 163 0 169 1 145 17 -60 41 -110 96 -120 132 -6 24 -9 273
-8 691 l3 653 419 -952 c361 -819 423 -952 440 -952 18 0 72 130 421 1022
l400 1021 3 -184 c1 -101 1 -526 0 -944 l-3 -760 -23 -40 c-13 -22 -46 -56
-75 -75 l-52 -35 173 -3 c94 -1 250 -1 345 0 l172 3 -47 28 c-26 15 -60 44
-75 64 l-28 36 -3 911 c-1 501 0 925 3 943 7 41 46 87 104 124 l46 29 -270 0
-271 0 -318 -817 c-176 -450 -322 -821 -326 -826 -3 -4 -175 364 -381 818
l-374 825 -232 0 c-128 0 -233 -2 -233 -5z"/>
</g>
</svg>
