<svg version="1.1" xmlns="http://www.w3.org/2000/svg" width="884" height="317">
<path d="M0 0 C15.51 0 31.02 0 47 0 C55.44914044 18.34081704 63.89380849 36.67634742 72.12060547 55.11767578 C76.29378499 64.45936581 80.54539784 73.76343896 84.8125 83.0625 C90.37789625 95.19168496 95.84916074 107.35918362 101.25 119.5625 C106.07828588 130.46908776 110.94653659 141.35425394 115.9375 152.1875 C116.69111816 153.82730835 116.69111816 153.82730835 117.45996094 155.50024414 C117.91532227 156.48371826 118.37068359 157.46719238 118.83984375 158.48046875 C119.23550537 159.33535889 119.63116699 160.19024902 120.03881836 161.07104492 C120.85113211 162.95697382 120.85113211 162.95697382 122 164 C122.33918457 163.11183594 122.67836914 162.22367188 123.02783203 161.30859375 C132.14698414 137.44739421 141.43313586 113.65393554 150.78686523 89.88378906 C151.72771563 87.49284397 152.66855232 85.10189349 153.609375 82.7109375 C154.06941422 81.54187866 154.52945343 80.37281982 155.00343323 79.16833496 C159.25113725 68.36988473 163.47390451 57.56179752 167.6875 46.75 C173.76538176 31.15621781 179.87239451 15.57433061 186 0 C203.82 0 221.64 0 240 0 C235 4 235 4 233.05078125 5.52734375 C232.47714844 5.99269531 231.90351562 6.45804688 231.3125 6.9375 C230.44044922 7.63166016 230.44044922 7.63166016 229.55078125 8.33984375 C225.73680991 12.42281055 225.70893377 17.22246713 225.73257446 22.53952026 C225.72577779 23.66558046 225.72577779 23.66558046 225.71884382 24.81438935 C225.70620167 27.32537845 225.70782005 29.8361506 225.70947266 32.34716797 C225.70348731 34.14933552 225.69668175 35.9515005 225.68911743 37.75366211 C225.67145147 42.6462557 225.66676182 47.53877933 225.66548586 52.43140173 C225.66406412 55.48871049 225.6597941 58.54600147 225.65449142 61.60330582 C225.63598966 72.27086771 225.62782106 82.93837962 225.62939453 93.60595703 C225.63059619 103.54723232 225.60948938 113.48829059 225.5779072 123.42951095 C225.551751 131.96724051 225.54102695 140.50489915 225.54230535 149.04266846 C225.54281515 154.14074529 225.53712202 159.23862922 225.51594925 164.33666611 C225.4965778 169.13184785 225.49643494 173.92665245 225.51098251 178.72184753 C225.51307302 180.47982967 225.50835531 182.23783535 225.4962616 183.99577713 C225.4807968 186.39979755 225.49012429 188.80251948 225.50552368 191.20651245 C225.49523656 191.89864645 225.48494943 192.59078045 225.47435057 193.3038882 C225.55004354 198.66796316 227.06648969 201.66336227 230 206 C232.50575687 208.2187284 232.50575687 208.2187284 235.25 209.875 C236.84305483 210.90173765 238.42953257 211.93903537 240 213 C240 213.33 240 213.66 240 214 C217.56 214 195.12 214 172 214 C177 209 177 209 179.6875 208 C182.18042829 207.20438417 182.18042829 207.20438417 183.1875 204.8125 C183.455625 203.884375 183.72375 202.95625 184 202 C184.34179731 200.9476438 184.68359463 199.89528761 185.03574944 198.81104183 C186.0355712 194.85941068 186.27454419 191.25165172 186.24050903 187.21083069 C186.24221788 186.45755963 186.24392673 185.70428858 186.24568737 184.92819113 C186.2489642 182.42085996 186.23800861 179.91380038 186.22705078 177.40649414 C186.22648628 175.60252895 186.22680399 173.79856331 186.22793579 171.99459839 C186.22850877 167.10876463 186.21676329 162.22302941 186.20278788 157.33721852 C186.19027141 152.22696894 186.18910929 147.11671701 186.18673706 142.00645447 C186.18052499 132.33456517 186.16411785 122.66272118 186.14403808 112.99085182 C186.1216706 101.97760429 186.11068351 90.96435458 186.10064721 79.95108998 C186.0797514 57.30070155 186.0445807 34.65035332 186 12 C185.78070296 12.56641016 185.56140593 13.13282032 185.33546352 13.71639442 C183.00641477 19.73155182 180.67637283 25.74632387 178.34580994 31.76089478 C177.48169532 33.99130995 176.61781553 36.22181611 175.75419617 38.4524231 C170.07720291 53.11470287 164.35669332 67.75863003 158.5625 82.375 C158.20057997 83.28828693 157.83865993 84.20157387 157.46577263 85.14253616 C156.74375484 86.96449893 156.02169782 88.78644615 155.29959583 90.60837555 C148.11678712 108.73133936 141.01446702 126.88589335 133.90402222 145.03733826 C130.73606608 153.1237963 127.56403414 161.20864929 124.390625 169.29296875 C123.01678428 172.79352628 121.6429859 176.29410043 120.26919556 179.79467773 C119.38948251 182.0359633 118.50958287 184.27717564 117.62948608 186.51831055 C116.40738833 189.63048095 115.1860379 192.74294369 113.96484375 195.85546875 C113.42715363 197.22387154 113.42715363 197.22387154 112.87860107 198.61991882 C110.87432416 203.73065697 108.91410751 208.85478647 107 214 C105.35 214 103.7 214 102 214 C93.91857915 196.09176267 85.9647806 178.13000685 78.07861328 160.13500977 C72.57567831 147.57965843 67.04577333 135.03648402 61.5 122.5 C54.557662 106.80447249 47.64115408 91.09783192 40.75195312 75.37890625 C33.5305043 58.90640651 26.26340861 42.45402851 19 26 C18.92986253 42.8289778 18.87698866 59.65790986 18.84456348 76.48700047 C18.82910653 84.30136061 18.80803948 92.11562985 18.77368164 99.92993164 C18.74374332 106.74232051 18.72441648 113.55464353 18.71773452 120.36709636 C18.71382974 123.97295374 18.70467761 127.57862274 18.68280983 131.18441963 C18.65857344 135.21360695 18.65803285 139.24246851 18.65942383 143.27172852 C18.648638 144.46215759 18.63785217 145.65258667 18.6267395 146.87908936 C18.65340203 154.01322069 18.90834249 159.63408255 23.9375 165.109375 C24.618125 165.65078125 25.29875 166.1921875 26 166.75 C28.49136746 168.76951756 30.71833432 170.71833432 33 173 C22.11 173 11.22 173 0 173 C3.28259134 169.71740866 6.55353865 166.91205384 10.1953125 164.07421875 C15.43595584 158.05088193 14.283086 149.21145326 14.25878906 141.74023438 C14.26150251 140.40082103 14.26506542 139.06140917 14.26940918 137.72200012 C14.27849345 134.10012179 14.27500536 130.47835796 14.26865101 126.85647774 C14.26357044 123.05743233 14.26828817 119.2583964 14.27142334 115.45935059 C14.275057 109.08079273 14.27027965 102.70228127 14.26074219 96.32373047 C14.24985878 88.96021923 14.25338478 81.59681877 14.264395 74.23331022 C14.27348499 67.89934453 14.27474479 61.56541209 14.26951766 55.23144197 C14.26640737 51.45360786 14.26596268 47.67582573 14.27259064 43.897995 C14.27838842 40.34551014 14.27432293 36.79316744 14.26280212 33.24069786 C14.25891702 31.32292753 14.26482042 29.40514511 14.27105713 27.48738098 C14.38357241 17.22627956 14.38357241 17.22627956 9.8125 8.375 C6.65817504 5.71134781 3.37192827 3.38018466 0 1 C0 0.67 0 0.34 0 0 Z " fill="#FFFFFF" transform="translate(391,47)"/>
<path d="M0 0 C12.48397461 -0.06988748 24.96790174 -0.12300643 37.45203304 -0.15543652 C43.25056365 -0.1710109 49.0489592 -0.19209677 54.84741211 -0.22631836 C60.45603808 -0.25920785 66.06453514 -0.27691466 71.6732502 -0.28463173 C73.7999836 -0.29012263 75.92671093 -0.30084285 78.0533886 -0.31719017 C94.03146175 -0.4349886 109.54975931 0.26508583 124.625 6.125 C125.41003906 6.4235791 126.19507813 6.7221582 127.00390625 7.02978516 C139.38069627 11.93185657 150.11462276 19.11094425 160 28 C161.15048828 29.02673828 161.15048828 29.02673828 162.32421875 30.07421875 C180.28623074 47.03311663 191.68494832 71.72500702 193.20703125 96.34936523 C193.30270713 99.83979068 193.32900742 103.32082125 193.3125 106.8125 C193.30512817 108.66234497 193.30512817 108.66234497 193.29760742 110.54956055 C193.18360171 119.41102025 192.51199556 127.46124091 190 136 C189.6596875 137.22074219 189.319375 138.44148437 188.96875 139.69921875 C184.27512832 155.12791433 176.50075592 167.84952964 166 180 C165.34386719 180.75925781 164.68773437 181.51851562 164.01171875 182.30078125 C145.45430364 202.12979653 117.49980015 213.29187683 90.69451904 214.25961304 C84.87663843 214.37997669 79.06069862 214.33878763 73.2421875 214.29296875 C71.11557315 214.28735713 68.98895486 214.28309446 66.86233521 214.28010559 C61.32880498 214.26877992 55.79551989 214.23942194 50.26208496 214.20599365 C44.5901216 214.17502445 38.91811771 214.16154351 33.24609375 214.14648438 C22.16395618 214.11453762 11.08199866 214.06349437 0 214 C2.93873611 211.00497646 5.73286959 208.78364828 9.31640625 206.63671875 C12.79905885 203.25103096 13.8967431 198.99949524 14.38031673 194.31865025 C14.39788703 192.98008908 14.39947124 191.64125211 14.38768005 190.30262756 C14.39306559 189.55908459 14.39845113 188.81554161 14.40399987 188.04946703 C14.41823125 185.57455442 14.41118788 183.10018032 14.40405273 180.62524414 C14.40975883 178.84410677 14.41672401 177.06297306 14.42485046 175.28184509 C14.44277034 170.45537722 14.44161571 165.62909127 14.43590808 160.80260015 C14.43281461 156.76930195 14.43891044 152.73603861 14.44494683 148.70274538 C14.45898654 139.18599663 14.4574353 129.66933767 14.44604492 120.15258789 C14.4345634 110.34306292 14.44864125 100.53381133 14.4754414 90.72432238 C14.49761026 82.29353318 14.50423312 73.86282972 14.49836498 65.43201345 C14.49499716 60.40045622 14.49739901 55.36907423 14.51461601 50.33754158 C14.530102 45.60551109 14.52611123 40.87388511 14.50731087 36.1418705 C14.50362961 34.40850145 14.50671994 32.67510231 14.51719666 30.94176102 C14.77319907 18.85387627 14.77319907 18.85387627 10 8 C7.5159186 5.6781471 7.5159186 5.6781471 4.75 4.0625 C3.15921546 3.05331732 1.57347176 2.035969 0 1 C0 0.67 0 0.34 0 0 Z M53 3 C53 71.31 53 139.62 53 210 C92.73380266 211.90429353 92.73380266 211.90429353 123.7265625 194.33203125 C146.55424772 170.91600363 151.32460104 137.48929676 151.4375 106.1875 C151.44376404 105.37673004 151.45002808 104.56596008 151.45648193 103.73062134 C151.60924704 72.46324515 144.57858336 41.65181459 122.75 18.25 C103.21672942 -0.51000857 79.01789857 3 53 3 Z " fill="#FFFFFF" transform="translate(12,47)"/>
<path d="M0 0 C23.64172765 20.32806232 37.99535002 47.24497711 40.8984375 78.4921875 C42.95803043 107.94138149 34.15255833 136.62408666 15.44921875 159.57421875 C-3.17197454 180.87595136 -28.37366155 196.28470738 -57.1015625 198.4921875 C-90.3563715 200.21862515 -117.67876236 190.13817029 -142.625 168.28125 C-163.56057644 148.52100417 -174.98958019 119.95579831 -176.28125 91.5390625 C-177.09411394 58.91007278 -165.03200843 30.06902199 -142.7265625 6.6171875 C-103.49151138 -30.71759049 -42.56562247 -33.70264354 0 0 Z M-106.84375 -2.20703125 C-131.76638474 27.5880217 -136.71020801 68.78588182 -133.68994141 106.32226562 C-131.86681597 124.32823677 -127.40484878 142.38051279 -119.1015625 158.4921875 C-118.56917969 159.55308594 -118.03679688 160.61398438 -117.48828125 161.70703125 C-109.2587605 176.96798024 -96.78425422 188.19699866 -80.1015625 193.4921875 C-66.93722138 196.75047126 -53.54831015 194.33850436 -41.8515625 187.7421875 C-20.43803797 173.78885862 -9.95689847 150.34342863 -4.56982422 126.09912109 C2.66630485 90.63685049 0.77751436 51.46820552 -15.1015625 18.4921875 C-15.59011719 17.4403125 -16.07867188 16.3884375 -16.58203125 15.3046875 C-24.4861971 -0.61629265 -37.14177942 -12.77559531 -54.1015625 -18.5078125 C-73.64192167 -23.58701182 -93.21943888 -16.58824854 -106.84375 -2.20703125 Z " fill="#FFFFFF" transform="translate(830.1015625,66.5078125)"/>
<path d="M0 0 C44.55 0 89.1 0 135 0 C143 36 143 36 144 46 C141.35962531 42.83748379 139.06208778 39.60067225 136.90673828 36.09008789 C127.81505931 21.32067366 117.11299207 10.77213872 100 6 C84.53251012 3.42208502 68.67618259 4.38234592 53 4 C53 35.68 53 67.36 53 100 C76.6148793 101.92139833 76.6148793 101.92139833 97 95 C98.37781326 92.6585458 99.56199079 90.45099501 100.6875 88 C100.98205078 87.38382812 101.27660156 86.76765625 101.58007812 86.1328125 C102.39509757 84.42585042 103.19798866 82.71311238 104 81 C104.66152367 79.66410754 105.32536933 78.32932151 106 77 C106.33 77 106.66 77 107 77 C107 93.83 107 110.66 107 128 C103.89892054 126.44946027 103.39997588 123.39113441 102.1875 120.3125 C99.14878266 112.9417057 99.14878266 112.9417057 94 107 C80.82404197 103.23544056 66.69728005 104.40286118 53 104 C53 138.98 53 173.96 53 210 C74.13682958 209.9032714 74.13682958 209.9032714 95.27343559 209.77792263 C102.83608075 209.7281701 110.39867003 209.68269346 117.96142578 209.65356445 C124.5945784 209.62800043 131.22752283 209.58700864 137.8605423 209.53681374 C140.38490229 209.52019257 142.90930124 209.50864884 145.43370819 209.50238609 C148.98306132 209.49269345 152.53184378 209.46457164 156.08105469 209.43237305 C157.11324631 209.43380814 158.14543793 209.43524323 159.20890808 209.4367218 C175.54161421 209.2286363 190.5594225 203.40784943 202.3359375 191.99609375 C210.66276521 182.99236357 217.00061138 172.13787844 222 161 C223.11196883 164.3359065 222.87794893 165.46868384 222.11962891 168.82275391 C221.9025528 169.80031647 221.68547668 170.77787903 221.46182251 171.7850647 C221.21918671 172.83825897 220.9765509 173.89145325 220.7265625 174.9765625 C220.48336273 176.05755219 220.24016296 177.13854187 219.98959351 178.25228882 C219.47370862 180.53785919 218.95396069 182.82256051 218.43066406 185.10644531 C217.62709091 188.61586842 216.83600179 192.12792842 216.046875 195.640625 C215.54500321 197.8569368 215.04242319 200.07308838 214.5390625 202.2890625 C214.30047516 203.34630524 214.06188782 204.40354797 213.81607056 205.49282837 C213.59269012 206.46408661 213.36930969 207.43534485 213.13916016 208.43603516 C212.94295074 209.29524567 212.74674133 210.15445618 212.54458618 211.03970337 C212 213 212 213 211 214 C208.28146243 214.09785825 205.58833853 214.12993566 202.86936951 214.12025452 C201.57564355 214.12153615 201.57564355 214.12153615 200.25578171 214.12284368 C197.34294519 214.12450114 194.43016527 214.1189728 191.51733398 214.11352539 C189.4383952 214.11324355 187.35945631 214.11340119 185.28051758 214.1139679 C179.61752561 214.11425599 173.95455463 214.10835731 168.29156756 214.10139394 C162.38050107 214.09516241 156.46943414 214.09455676 150.55836487 214.09336853 C139.35632305 214.09025462 128.15429094 214.08204043 116.9522534 214.07201904 C104.20277637 214.06085975 91.45329889 214.05534792 78.7038182 214.05032361 C52.46920674 214.03985786 26.23460391 214.02225727 0 214 C2.77174996 211.1556192 5.75147593 209.07289086 9.0625 206.890625 C13.14487282 202.90701926 14.33285645 197.93432707 14.40589231 192.37022072 C14.39988227 191.68791498 14.39387222 191.00560924 14.38768005 190.30262756 C14.39306559 189.55908459 14.39845113 188.81554161 14.40399987 188.04946703 C14.41823125 185.57455442 14.41118788 183.10018032 14.40405273 180.62524414 C14.40975883 178.84410677 14.41672401 177.06297306 14.42485046 175.28184509 C14.44277034 170.45537722 14.44161571 165.62909127 14.43590808 160.80260015 C14.43281461 156.76930195 14.43891044 152.73603861 14.44494683 148.70274538 C14.45898654 139.18599663 14.4574353 129.66933767 14.44604492 120.15258789 C14.4345634 110.34306292 14.44864125 100.53381133 14.4754414 90.72432238 C14.49761026 82.29353318 14.50423312 73.86282972 14.49836498 65.43201345 C14.49499716 60.40045622 14.49739901 55.36907423 14.51461601 50.33754158 C14.530102 45.60551109 14.52611123 40.87388511 14.50731087 36.1418705 C14.50362961 34.40850145 14.50671994 32.67510231 14.51719666 30.94176102 C14.77319907 18.85387627 14.77319907 18.85387627 10 8 C7.5159186 5.6781471 7.5159186 5.6781471 4.75 4.0625 C3.15921546 3.05331732 1.57347176 2.035969 0 1 C0 0.67 0 0.34 0 0 Z " fill="#FFFFFF" transform="translate(230,47)"/>
<path d="" fill="#000" transform="translate(0,0)"/>
<path d="" fill="#000" transform="translate(0,0)"/>
</svg>